<svg width="50" height="50" viewBox="0 0 50 50" fill="none" xmlns="http://www.w3.org/2000/svg">
<path d="M0 25C0 11.1929 11.1929 0 25 0C38.8071 0 50 11.1929 50 25C50 38.8071 38.8071 50 25 50H0V25Z" fill="#0156FF"/>
<path d="M16.8939 17C16.3916 17 15.9099 17.1995 15.5547 17.5547C15.1995 17.9099 15 18.3916 15 18.8939V29.3106H16.8939C16.8939 30.0641 17.1932 30.7867 17.726 31.3194C18.2588 31.8522 18.9814 32.1515 19.7348 32.1515C20.4883 32.1515 21.2109 31.8522 21.7437 31.3194C22.2764 30.7867 22.5758 30.0641 22.5758 29.3106H28.2576C28.2576 30.0641 28.5569 30.7867 29.0897 31.3194C29.6224 31.8522 30.345 32.1515 31.0985 32.1515C31.8519 32.1515 32.5745 31.8522 33.1073 31.3194C33.6401 30.7867 33.9394 30.0641 33.9394 29.3106H35.8333V24.5758L32.9924 20.7879H30.1515V17H16.8939ZM30.1515 22.2083H32.5189L34.3845 24.5758H30.1515V22.2083ZM19.7348 27.8902C20.1116 27.8902 20.4729 28.0398 20.7393 28.3062C21.0056 28.5726 21.1553 28.9339 21.1553 29.3106C21.1553 29.6873 21.0056 30.0486 20.7393 30.315C20.4729 30.5814 20.1116 30.7311 19.7348 30.7311C19.3581 30.7311 18.9968 30.5814 18.7304 30.315C18.464 30.0486 18.3144 29.6873 18.3144 29.3106C18.3144 28.9339 18.464 28.5726 18.7304 28.3062C18.9968 28.0398 19.3581 27.8902 19.7348 27.8902ZM31.0985 27.8902C31.4752 27.8902 31.8365 28.0398 32.1029 28.3062C32.3693 28.5726 32.5189 28.9339 32.5189 29.3106C32.5189 29.6873 32.3693 30.0486 32.1029 30.315C31.8365 30.5814 31.4752 30.7311 31.0985 30.7311C30.7218 30.7311 30.3605 30.5814 30.0941 30.315C29.8277 30.0486 29.678 29.6873 29.678 29.3106C29.678 28.9339 29.8277 28.5726 30.0941 28.3062C30.3605 28.0398 30.7218 27.8902 31.0985 27.8902Z" fill="white"/>
</svg>
